{
  "accessors": [
    {
      "bufferView": 0,
      "componentType": 5126,
      "count": 2395,
      "max": [
        60.21161651611328,
        35.07655715942383,
        55.24557876586914
      ],
      "min": [
        -52.614837646484375,
        -35.07655715942383,
        0.0
      ],
      "type": "VEC3"
    },
    {
      "bufferView": 0,
      "byteOffset": 12,
      "componentType": 5126,
      "count": 2395,
      "type": "VEC3"
    },
    {
      "bufferView": 1,
      "componentType": 5125,
      "count": 12096,
      "type": "SCALAR"
    }
  ],
  "asset": {
    "version": "2.0"
  },
  "bufferViews": [
    {
      "buffer": 0,
      "byteLength": 76640,
      "byteStride": 32,
      "target": 34962
    },
    {
      "buffer": 0,
      "byteLength": 48384,
      "byteOffset": 76640,
      "target": 34963
    }
  ],
  "buffers": [
    {
      "byteLength": 125024,
      "uri": "Teapot.bin"
    }
  ],
  "materials": [
    {
      "name": "M_03___Default",
      "pbrMetallicRoughness": {
        "baseColorFactor": [
          0.6392160058021545,
          0.5725489854812622,
          0.4235289990901947,
          1.0
        ],
        "metallicFactor": 0.0,
        "roughnessFactor": 0.6464470028877258
      }
    }
  ],
  "meshes": [
    {
      "name": "Teapot",
      "primitives": [
        {
          "attributes": {
            "NORMAL": 1,
            "POSITION": 0
          },
          "indices": 2,
          "material": 0,
          "mode": 4
        }
      ]
    }
  ],
  "nodes": [
    {
      "matrix": [
        0.01,
        0.0,
        0.0,
        0.0,
        0.0,
        0.01,
        0.0,
        0.0,
        0.0,
        0.0,
        0.01,
        0.0,
        0.0,
        0.0,
        0.0,
        1.0
      ],
      "mesh": 0,
      "name": "Teapot"
    },
    {
      "children": [
        0
      ],
      "matrix": [
        1.0,
        0.0,
        0.0,
        0.0,
        0.0,
        0.0,
        -1.0,
        0.0,
        0.0,
        1.0,
        0.0,
        0.0,
        0.0,
        0.0,
        0.0,
        1.0
      ]
    }
  ],
  "scenes": [
    {
      "nodes": [
        1
      ]
    }
  ]
}
