{
  "accessors": [
    {
      "bufferView": 0,
      "componentType": 5126,
      "count": 22224,
      "max": [
        533.79248046875,
        423.8873291015625,
        326.7455139160156
      ],
      "min": [
        -669.957763671875,
        -493.967041015625,
        -326.7452392578125
      ],
      "type": "VEC3"
    },
    {
      "bufferView": 0,
      "byteOffset": 12,
      "componentType": 5126,
      "count": 22224,
      "type": "VEC3"
    },
    {
      "bufferView": 0,
      "byteOffset": 24,
      "componentType": 5126,
      "count": 22224,
      "type": "VEC2"
    },
    {
      "bufferView": 1,
      "componentType": 5125,
      "count": 41094,
      "type": "SCALAR"
    },
    {
      "bufferView": 2,
      "componentType": 5126,
      "count": 408,
      "max": [
        1.2722129821777344,
        0.5517672896385193,
        2.6836400032043457
      ],
      "min": [
        -1.2338337898254395,
        -0.498281866312027,
        -1.4728459119796753
      ],
      "type": "VEC3"
    },
    {
      "bufferView": 2,
      "byteOffset": 12,
      "componentType": 5126,
      "count": 408,
      "type": "VEC3"
    },
    {
      "bufferView": 3,
      "componentType": 5125,
      "count": 2148,
      "type": "SCALAR"
    },
    {
      "bufferView": 4,
      "componentType": 5126,
      "count": 408,
      "max": [
        1.2722129821777344,
        0.5517672896385193,
        2.6836400032043457
      ],
      "min": [
        -1.2338337898254395,
        -0.498281866312027,
        -1.4728459119796753
      ],
      "type": "VEC3"
    },
    {
      "bufferView": 4,
      "byteOffset": 12,
      "componentType": 5126,
      "count": 408,
      "type": "VEC3"
    },
    {
      "bufferView": 5,
      "componentType": 5125,
      "count": 2148,
      "type": "SCALAR"
    },
    {
      "bufferView": 6,
      "componentType": 5126,
      "count": 384,
      "max": [
        1.5272033214569092,
        0.5,
        1.3557777404785156
      ],
      "min": [
        -1.5117945671081543,
        -0.5,
        -1.3406145572662354
      ],
      "type": "VEC3"
    },
    {
      "bufferView": 6,
      "byteOffset": 12,
      "componentType": 5126,
      "count": 384,
      "type": "VEC3"
    },
    {
      "bufferView": 7,
      "componentType": 5125,
      "count": 1932,
      "type": "SCALAR"
    }
  ],
  "asset": {
    "version": "2.0"
  },
  "bufferViews": [
    {
      "buffer": 0,
      "byteLength": 711168,
      "byteStride": 32,
      "target": 34962
    },
    {
      "buffer": 0,
      "byteLength": 164376,
      "byteOffset": 711168,
      "target": 34963
    },
    {
      "buffer": 0,
      "byteLength": 9792,
      "byteOffset": 875544,
      "byteStride": 24,
      "target": 34962
    },
    {
      "buffer": 0,
      "byteLength": 8592,
      "byteOffset": 885336,
      "target": 34963
    },
    {
      "buffer": 0,
      "byteLength": 9792,
      "byteOffset": 893928,
      "byteStride": 24,
      "target": 34962
    },
    {
      "buffer": 0,
      "byteLength": 8592,
      "byteOffset": 903720,
      "target": 34963
    },
    {
      "buffer": 0,
      "byteLength": 9216,
      "byteOffset": 912312,
      "byteStride": 24,
      "target": 34962
    },
    {
      "buffer": 0,
      "byteLength": 7728,
      "byteOffset": 921528,
      "target": 34963
    }
  ],
  "buffers": [
    {
      "byteLength": 929256,
      "uri": "Optimus_Prime.bin"
    }
  ],
  "images": [
    {
      "uri": "Prime_Update_01___Default_Normal.png"
    },
    {
      "uri": "M_01___Defaultbasecolortexture.png"
    },
    {
      "uri": "M_01___Defaultmetallicroughnesstex.png"
    }
  ],
  "materials": [
    {
      "name": "01___Default",
      "normalTexture": {
        "index": 0,
        "scale": -1.0
      },
      "pbrMetallicRoughness": {
        "baseColorTexture": {
          "index": 1
        },
        "metallicFactor": 0.10000000149011612,
        "metallicRoughnessTexture": {
          "index": 2
        },
        "roughnessFactor": 0.0
      }
    }
  ],
  "meshes": [
    {
      "name": "Plane003",
      "primitives": [
        {
          "attributes": {
            "NORMAL": 1,
            "POSITION": 0,
            "TEXCOORD_0": 2
          },
          "indices": 3,
          "material": 0,
          "mode": 4
        }
      ]
    },
    {
      "name": "nurbsCircle1",
      "primitives": [
        {
          "attributes": {
            "NORMAL": 5,
            "POSITION": 4
          },
          "indices": 6,
          "material": 0,
          "mode": 4
        }
      ]
    },
    {
      "name": "nurbsCircle2",
      "primitives": [
        {
          "attributes": {
            "NORMAL": 8,
            "POSITION": 7
          },
          "indices": 9,
          "material": 0,
          "mode": 4
        }
      ]
    },
    {
      "name": "nurbsCircle3",
      "primitives": [
        {
          "attributes": {
            "NORMAL": 11,
            "POSITION": 10
          },
          "indices": 12,
          "material": 0,
          "mode": 4
        }
      ]
    }
  ],
  "nodes": [
    {
      "matrix": [
        0.01,
        0.0,
        0.0,
        0.0,
        0.0,
        0.01,
        0.0,
        0.0,
        0.0,
        0.0,
        0.01,
        0.0,
        0.0,
        0.0,
        0.0,
        1.0
      ],
      "mesh": 0,
      "name": "Plane003"
    },
    {
      "children": [
        0
      ],
      "matrix": [
        4.6173056489351425e-08,
        0.23714099824428558,
        0.0,
        0.0,
        -1.4520700704031497e-17,
        2.8272847812754796e-24,
        -0.23714099824428558,
        0.0,
        -0.23714099824428558,
        4.6173056489351425e-08,
        1.4520700704031497e-17,
        0.0,
        -4.425048828125e-06,
        1.5885514831542968,
        -3.4451484680175783e-07,
        1.0
      ]
    },
    {
      "matrix": [
        0.01,
        0.0,
        0.0,
        0.0,
        0.0,
        0.01,
        0.0,
        0.0,
        0.0,
        0.0,
        0.01,
        0.0,
        0.0,
        0.0,
        0.0,
        1.0
      ],
      "mesh": 1,
      "name": "nurbsCircle1"
    },
    {
      "children": [
        2
      ],
      "matrix": [
        24.489662170410156,
        0.0,
        0.0,
        0.0,
        0.0,
        2.290032386779785,
        1.0010049322772829e-07,
        0.0,
        0.0,
        -1.07047708297614e-06,
        24.489662170410156,
        0.0,
        0.22619586944580078,
        -5.3265505951826697e-17,
        -0.77,
        1.0
      ]
    },
    {
      "matrix": [
        0.01,
        0.0,
        0.0,
        0.0,
        0.0,
        0.01,
        0.0,
        0.0,
        0.0,
        0.0,
        0.01,
        0.0,
        0.0,
        0.0,
        0.0,
        1.0
      ],
      "mesh": 2,
      "name": "nurbsCircle2"
    },
    {
      "children": [
        4
      ],
      "matrix": [
        24.489662170410156,
        0.0,
        0.0,
        0.0,
        0.0,
        2.290032386779785,
        1.0010049322772829e-07,
        0.0,
        0.0,
        -1.07047708297614e-06,
        24.489662170410156,
        0.0,
        -0.22620000839233398,
        0.0,
        0.75,
        1.0
      ]
    },
    {
      "matrix": [
        0.01,
        0.0,
        0.0,
        0.0,
        0.0,
        0.01,
        0.0,
        0.0,
        0.0,
        0.0,
        0.01,
        0.0,
        0.0,
        0.0,
        0.0,
        1.0
      ],
      "mesh": 3,
      "name": "nurbsCircle3"
    },
    {
      "children": [
        6
      ],
      "matrix": [
        39.69244384765625,
        0.0,
        0.0,
        0.0,
        0.0,
        1.0,
        4.371138828673793e-08,
        0.0,
        0.0,
        -1.7350117786918418e-06,
        39.69244384765625,
        0.0,
        0.0,
        1.6651046752929688,
        0.0,
        1.0
      ]
    }
  ],
  "samplers": [
    {
      "magFilter": 9729,
      "minFilter": 9729,
      "wrapS": 10497,
      "wrapT": 10497
    },
    {
      "magFilter": 9729,
      "minFilter": 9729,
      "wrapS": 10497,
      "wrapT": 10497
    },
    {
      "magFilter": 9729,
      "minFilter": 9729,
      "wrapS": 10497,
      "wrapT": 10497
    }
  ],
  "scenes": [
    {
      "nodes": [
        1,
        3,
        5,
        7
      ]
    }
  ],
  "textures": [
    {
      "name": "texture_source0_sampler0",
      "sampler": 0,
      "source": 0
    },
    {
      "name": "texture_source1_sampler1",
      "sampler": 1,
      "source": 1
    },
    {
      "name": "texture_source2_sampler2",
      "sampler": 2,
      "source": 2
    }
  ]
}
